<?xml version="1.0" encoding="utf-8"?>
<!-- Generator: Adobe Illustrator 22.1.0, SVG Export Plug-In . SVG Version: 6.00 Build 0)  -->
<svg version="1.1" id="Layer_1" xmlns="http://www.w3.org/2000/svg" xmlns:xlink="http://www.w3.org/1999/xlink" x="0px" y="0px"
	 viewBox="0 0 384.4 121.5" style="enable-background:new 0 0 384.4 121.5;" xml:space="preserve">
<style type="text/css">
	.st0{fill:#3F618C;}
	.st1{fill:#FFFFFF;}
	.st2{fill:#30356C;}
	.st3{clip-path:url(#SVGID_2_);fill:#3F618C;}
	.st4{clip-path:url(#SVGID_4_);fill:#7FD3F4;}
	.st5{fill:#7FD3F4;}
	.st6{clip-path:url(#SVGID_6_);fill:#FFFFFF;}
	.st7{clip-path:url(#SVGID_8_);fill:#7FD3F4;}
	.st8{clip-path:url(#SVGID_10_);fill:#7FD3F4;}
	.st9{clip-path:url(#SVGID_12_);fill:#7FD3F4;}
	.st10{clip-path:url(#SVGID_14_);fill:#7FD3F4;}
</style>
<g>
	<path class="st0" d="M171.8,61.2c-3,0-5.7-0.5-8.3-1.6c-2.6-1-4.9-2.5-6.8-4.4c-1.9-1.9-3.5-4.2-4.6-6.8c-1.1-2.6-1.6-5.5-1.6-8.7
		c0-3.2,0.5-6,1.6-8.6c1.1-2.6,2.6-4.9,4.6-6.8c1.9-1.9,4.2-3.4,6.8-4.4c2.6-1,5.4-1.6,8.3-1.6c3,0,5.8,0.5,8.4,1.6
		c2.6,1,4.9,2.5,6.8,4.4s3.5,4.2,4.6,6.8c1.1,2.6,1.7,5.5,1.7,8.6c0,3.2-0.6,6.1-1.7,8.7c-1.1,2.6-2.6,4.9-4.6,6.8
		c-2,1.9-4.2,3.4-6.8,4.4S174.8,61.2,171.8,61.2z M171.9,54.3c2.5,0,4.8-0.6,6.8-1.8c2-1.2,3.5-2.9,4.7-5.1c1.1-2.2,1.7-4.7,1.7-7.6
		c0-2.9-0.6-5.5-1.7-7.6c-1.1-2.2-2.7-3.8-4.7-5.1c-2-1.2-4.2-1.8-6.8-1.8c-2.6,0-4.9,0.6-6.9,1.8c-2,1.2-3.5,2.9-4.6,5.1
		c-1.1,2.2-1.7,4.7-1.7,7.6c0,2.9,0.6,5.4,1.7,7.6c1.1,2.2,2.7,3.9,4.6,5.1C167,53.7,169.3,54.3,171.9,54.3z"/>
	<path class="st0" d="M215,18.8c4.5,0,8.4,0.9,11.7,2.6c3.3,1.7,5.9,4.2,7.7,7.4c1.8,3.2,2.8,6.9,2.8,11.2c0,4.2-0.9,7.9-2.8,11
		c-1.8,3.1-4.4,5.5-7.7,7.3c-3.3,1.7-7.2,2.6-11.7,2.6h-15.7v-42H215z M214.8,54c4.5,0,8-1.3,10.4-3.8c2.4-2.5,3.7-6,3.7-10.4
		c0-4.4-1.2-7.9-3.7-10.5c-2.4-2.6-5.9-3.8-10.4-3.8h-7.3V54H214.8z"/>
	<path class="st0" d="M243,18.8h8.1v26.5c0,2,0.4,3.6,1.2,5c0.8,1.3,1.9,2.3,3.3,3c1.4,0.7,3,1,4.8,1c1.8,0,3.5-0.3,4.9-1
		c1.4-0.7,2.5-1.7,3.3-3s1.2-3,1.2-5V18.8h8.1v26.1c0,2.8-0.5,5.2-1.4,7.2s-2.3,3.7-3.9,5.1c-1.7,1.4-3.5,2.4-5.6,3
		c-2.1,0.7-4.3,1-6.6,1c-3,0-5.9-0.6-8.5-1.8c-2.6-1.2-4.7-3-6.3-5.4c-1.6-2.4-2.4-5.4-2.4-9.1V18.8z"/>
	<path class="st0" d="M301.5,18.8c4.5,0,8.4,0.9,11.7,2.6c3.3,1.7,5.9,4.2,7.7,7.4c1.8,3.2,2.8,6.9,2.8,11.2c0,4.2-0.9,7.9-2.8,11
		s-4.4,5.5-7.7,7.3c-3.3,1.7-7.2,2.6-11.7,2.6h-15.7v-42H301.5z M301.2,54c4.5,0,8-1.3,10.4-3.8c2.4-2.5,3.7-6,3.7-10.4
		c0-4.4-1.2-7.9-3.7-10.5c-2.4-2.6-5.9-3.8-10.4-3.8h-7.3V54H301.2z"/>
	<path class="st0" d="M329.5,18.8h8.1v26.5c0,2,0.4,3.6,1.2,5c0.8,1.3,1.9,2.3,3.3,3c1.4,0.7,3,1,4.8,1c1.8,0,3.5-0.3,4.9-1
		c1.4-0.7,2.5-1.7,3.3-3s1.2-3,1.2-5V18.8h8.1v26.1c0,2.8-0.5,5.2-1.4,7.2s-2.3,3.7-3.9,5.1c-1.7,1.4-3.5,2.4-5.6,3
		c-2.1,0.7-4.3,1-6.6,1c-3,0-5.9-0.6-8.5-1.8c-2.6-1.2-4.7-3-6.3-5.4c-1.6-2.4-2.4-5.4-2.4-9.1V18.8z"/>
	<path class="st0" d="M168.1,66.8c4.5,0,8.4,0.9,11.7,2.6s5.9,4.2,7.7,7.3c1.8,3.2,2.8,6.9,2.8,11.2c0,4.2-0.9,7.9-2.8,11
		c-1.8,3.1-4.4,5.5-7.7,7.3c-3.3,1.7-7.2,2.6-11.7,2.6h-15.7v-42H168.1z M167.9,102c4.5,0,8-1.3,10.4-3.8c2.4-2.5,3.7-6,3.7-10.4
		c0-4.4-1.2-7.9-3.7-10.5c-2.4-2.6-5.9-3.8-10.4-3.8h-7.3V102H167.9z"/>
	<path class="st0" d="M215.6,73.6h-2.2L201,108.8h-8.3l15.1-42h13.4l15.1,42h-8.3L215.6,73.6z M201.8,92.4h24.5v6.8h-24.5V92.4z"/>
	<path class="st0" d="M260,109.2c-3,0-5.7-0.5-8.3-1.6c-2.6-1-4.9-2.5-6.8-4.4c-1.9-1.9-3.5-4.2-4.6-6.8c-1.1-2.6-1.7-5.5-1.7-8.7
		c0-3.2,0.5-6,1.7-8.6c1.1-2.6,2.6-4.9,4.6-6.8c1.9-1.9,4.2-3.4,6.8-4.4c2.6-1,5.4-1.6,8.3-1.6c3,0,5.8,0.5,8.4,1.6s4.8,2.5,6.8,4.4
		s3.5,4.2,4.6,6.8c1.1,2.6,1.7,5.5,1.7,8.6c0,3.2-0.6,6.1-1.7,8.7c-1.1,2.6-2.6,4.9-4.6,6.8c-2,1.9-4.2,3.4-6.8,4.4
		S263,109.2,260,109.2z M260.1,102.3c2.5,0,4.8-0.6,6.8-1.8c2-1.2,3.5-2.9,4.7-5.1c1.1-2.2,1.7-4.7,1.7-7.6c0-2.9-0.6-5.5-1.7-7.6
		c-1.1-2.2-2.7-3.8-4.7-5.1c-2-1.2-4.2-1.8-6.8-1.8c-2.6,0-4.9,0.6-6.9,1.8c-2,1.2-3.5,2.9-4.6,5.1c-1.1,2.2-1.7,4.7-1.7,7.6
		c0,2.9,0.6,5.4,1.7,7.6c1.1,2.2,2.7,3.9,4.6,5.1C255.2,101.7,257.5,102.3,260.1,102.3z"/>
</g>
<g>
	<g>
		<g>
			<defs>
				
					<rect id="SVGID_7_" x="21.7" y="9.1" transform="matrix(0.7044 -0.7098 0.7098 0.7044 -23.0644 73.9457)" width="111.1" height="111.1"/>
			</defs>
			<clipPath id="SVGID_2_">
				<use xlink:href="#SVGID_7_"  style="overflow:visible;"/>
			</clipPath>
			<path style="clip-path:url(#SVGID_2_);fill:#7FD3F4;" d="M132.4,87.9c-6.2,6.3-14.6,9.8-23.4,9.8l-22.1,0.1
				c-2.1-0.1-3.8-1.8-3.9-4c0-2.1,1.7-3.9,3.8-4l22.1-0.1c13.9-0.1,25.2-11.4,25.1-25.3c-0.1-13.9-11.4-25.2-25.3-25.1l-22.1,0.1
				c-2.1-0.1-3.8-1.8-3.9-4c0-2.1,1.7-3.9,3.8-4l22.1-0.1c13.4-0.1,25.6,8,30.8,20.4C144.6,64.1,141.8,78.4,132.4,87.9L132.4,87.9z
				 M132.4,87.9"/>
		</g>
	</g>
	<path class="st5" d="M103.3,50.7c-6.3,0-11.6,4.2-13.4,9.9h-9.1c-2-16.6-16.2-29.6-33.3-29.6c-18.5,0-33.6,15.1-33.6,33.6
		c0,18.5,15.1,33.6,33.6,33.6c17.2,0,31.3-12.9,33.3-29.6h9.1c1.7,5.7,7.1,9.9,13.4,9.9c7.7,0,14-6.3,14-14S111,50.7,103.3,50.7z
		 M47.5,90.6c-14.3,0-26-11.7-26-26c0-14.3,11.7-26,26-26s26,11.7,26,26C73.4,79,61.8,90.6,47.5,90.6z M103.3,71
		c-3.5,0-6.3-2.8-6.3-6.3c0-3.5,2.8-6.3,6.3-6.3c3.5,0,6.3,2.8,6.3,6.3C109.6,68.2,106.8,71,103.3,71z"/>
</g>
</svg>
